<svg width="165" height="32" viewBox="0 0 165 32" fill="none" xmlns="http://www.w3.org/2000/svg">
<rect x="31.5742" y="5.0896" width="9.56186" height="21.5142" fill="#14477D"/>
<path d="M5.2793 5.08961H14.8412V17.9598L27.6899 5.0896L41.1363 5.08961L19.6221 26.6038H5.2793V5.08961Z" fill="#007BFF"/>
<path d="M67.4312 26.6042H57.8693V13.734L45.0205 26.6042L31.5742 26.6042L53.0884 5.09004H67.4312V26.6042Z" fill="#007BFF"/>
<path d="M95.1312 4.90162V15.3049H92.352V8.73599L86.006 15.0523L79.6748 8.73599V15.3049H76.8956V4.90162H79.5411L86.006 11.2774L92.4857 4.90162H95.1312ZM98.5498 4.90162H113.575V7.42814H101.329V8.97378H112.059V11.2328H101.329V12.7784H113.575V15.3049H98.5498V4.90162Z" fill="#007BFF"/>
<path d="M134.608 4.90162V15.3049H131.829V8.73599L125.483 15.0523L119.152 8.73599V15.3049H116.372V4.90162H119.018L125.483 11.2774L131.963 4.90162H134.608ZM144.075 15.4536C142.867 15.4536 141.831 15.3148 140.969 15.0374C140.117 14.7501 139.419 14.3686 138.874 13.8931C138.339 13.4076 137.947 12.8428 137.7 12.1988C137.452 11.5449 137.328 10.8464 137.328 10.1033C137.328 9.36018 137.452 8.66663 137.7 8.02262C137.947 7.36869 138.339 6.80394 138.874 6.32836C139.419 5.84288 140.117 5.46142 140.969 5.184C141.831 4.89667 142.867 4.753 144.075 4.753H148.593C149.802 4.753 150.833 4.89667 151.685 5.184C152.547 5.46142 153.245 5.84288 153.78 6.32836C154.325 6.80394 154.722 7.36869 154.969 8.02262C155.217 8.66663 155.341 9.36018 155.341 10.1033C155.341 10.8464 155.217 11.5449 154.969 12.1988C154.722 12.8428 154.325 13.4076 153.78 13.8931C153.245 14.3686 152.547 14.7501 151.685 15.0374C150.833 15.3148 149.802 15.4536 148.593 15.4536H144.075ZM148.579 12.927C149.332 12.927 149.951 12.8527 150.436 12.7041C150.932 12.5555 151.323 12.3573 151.61 12.1096C151.898 11.852 152.096 11.5548 152.205 11.2179C152.314 10.8711 152.368 10.4996 152.368 10.1033C152.368 9.70696 152.314 9.34037 152.205 9.0035C152.096 8.65672 151.898 8.35949 151.61 8.11179C151.323 7.85418 150.932 7.65107 150.436 7.50245C149.951 7.35383 149.332 7.27952 148.579 7.27952H144.105C143.342 7.27952 142.713 7.35383 142.218 7.50245C141.732 7.65107 141.346 7.85418 141.059 8.11179C140.771 8.35949 140.568 8.65672 140.449 9.0035C140.34 9.34037 140.286 9.70696 140.286 10.1033C140.286 10.4996 140.34 10.8711 140.449 11.2179C140.568 11.5548 140.766 11.852 141.044 12.1096C141.331 12.3573 141.717 12.5555 142.203 12.7041C142.698 12.8527 143.327 12.927 144.09 12.927H148.579Z" fill="#14477D"/>
<path d="M77.1354 19.0886H78.9818V26H77.1354V19.0886ZM88.6774 26L82.7929 22.2975V26H81.1539V20.4709H82.704L88.5984 24.1734V20.4709H90.2276V26H88.6774ZM92.3001 20.4709H100.801V21.8828H93.939V22.643H99.9322V24.0549H93.939V26H92.3001V20.4709ZM105.616 26.079C104.931 26.079 104.352 26.0066 103.878 25.8618C103.404 25.7104 103.019 25.5063 102.723 25.2496C102.427 24.9929 102.213 24.6934 102.081 24.3511C101.95 24.0023 101.884 23.6304 101.884 23.2354C101.884 22.8405 101.95 22.4719 102.081 22.1296C102.213 21.7807 102.427 21.478 102.723 21.2213C103.019 20.9645 103.404 20.7638 103.878 20.619C104.352 20.4676 104.931 20.3919 105.616 20.3919H108.341C109.025 20.3919 109.605 20.4676 110.079 20.619C110.553 20.7638 110.934 20.9645 111.224 21.2213C111.52 21.478 111.734 21.7807 111.866 22.1296C111.997 22.4719 112.063 22.8405 112.063 23.2354C112.063 23.6304 111.997 24.0023 111.866 24.3511C111.734 24.6934 111.52 24.9929 111.224 25.2496C110.934 25.5063 110.553 25.7104 110.079 25.8618C109.605 26.0066 109.025 26.079 108.341 26.079H105.616ZM108.331 24.6671C108.746 24.6671 109.081 24.6309 109.338 24.5585C109.601 24.4795 109.805 24.3775 109.95 24.2524C110.102 24.1208 110.204 23.9694 110.256 23.7982C110.309 23.6205 110.335 23.4329 110.335 23.2354C110.335 23.038 110.309 22.8537 110.256 22.6825C110.204 22.5048 110.102 22.3534 109.95 22.2283C109.805 22.0967 109.601 21.9947 109.338 21.9223C109.081 21.8433 108.746 21.8038 108.331 21.8038H105.626C105.204 21.8038 104.862 21.8433 104.599 21.9223C104.342 21.9947 104.138 22.0967 103.987 22.2283C103.842 22.3534 103.743 22.5048 103.691 22.6825C103.638 22.8537 103.612 23.038 103.612 23.2354C103.612 23.4329 103.638 23.6205 103.691 23.7982C103.743 23.9694 103.842 24.1208 103.987 24.2524C104.138 24.3775 104.342 24.4795 104.599 24.5585C104.862 24.6309 105.204 24.6671 105.626 24.6671H108.331ZM112.896 19.0886H124.132V20.7671H119.432V26H117.596V20.7671H112.896V19.0886ZM125.392 20.4709H133.893V21.8828H127.031V22.6233H133.024V23.8476H127.031V24.5881H133.893V26H125.392V20.4709ZM136.886 23.2354C136.886 23.4263 136.909 23.604 136.956 23.7686C137.002 23.9266 137.094 24.0681 137.232 24.1932C137.37 24.3182 137.561 24.417 137.805 24.4894C138.055 24.5552 138.377 24.5881 138.772 24.5881H143.916V26H138.772C138.107 26 137.545 25.9276 137.084 25.7828C136.623 25.638 136.248 25.4405 135.958 25.1904C135.675 24.9403 135.468 24.6473 135.336 24.3116C135.211 23.9759 135.149 23.6172 135.149 23.2354C135.149 22.8537 135.211 22.4949 135.336 22.1592C135.468 21.8235 135.675 21.5306 135.958 21.2805C136.248 21.0304 136.623 20.8329 137.084 20.6881C137.545 20.5433 138.107 20.4709 138.772 20.4709H143.916V21.8828H138.772C138.377 21.8828 138.055 21.919 137.805 21.9914C137.561 22.0572 137.37 22.1526 137.232 22.2777C137.094 22.4028 137.002 22.5476 136.956 22.7121C136.909 22.8767 136.886 23.0511 136.886 23.2354ZM152.987 23.9463H147.231V26H145.592V20.4709H147.231V22.5245H152.987V20.4709H154.626V26H152.987V23.9463Z" fill="#14477D"/>
</svg>
